<?xml version="1.0" encoding="UTF-8" standalone="no"?>
<!-- Created with Inkscape (http://www.inkscape.org/) -->

<svg
   version="1.1"
   id="svg2"
   width="582.66669"
   height="582.66669"
   viewBox="0 0 582.66669 582.66669"
   sodipodi:docname="record.eps"
   xmlns:inkscape="http://www.inkscape.org/namespaces/inkscape"
   xmlns:sodipodi="http://sodipodi.sourceforge.net/DTD/sodipodi-0.dtd"
   xmlns="http://www.w3.org/2000/svg"
   xmlns:svg="http://www.w3.org/2000/svg">
  <defs
     id="defs6" />
  <sodipodi:namedview
     id="namedview4"
     pagecolor="#ffffff"
     bordercolor="#000000"
     borderopacity="0.25"
     inkscape:showpageshadow="2"
     inkscape:pageopacity="0.0"
     inkscape:pagecheckerboard="0"
     inkscape:deskcolor="#d1d1d1" />
  <g
     id="g8"
     inkscape:groupmode="layer"
     inkscape:label="ink_ext_XXXXXX"
     transform="matrix(1.3333333,0,0,-1.3333333,0,582.66667)">
    <g
       id="g10"
       transform="scale(0.1)">
      <path
         d="M 3730.77,2711.1 C 4023.86,1859.92 3571.44,932.309 2720.25,639.227 1869.07,346.141 941.469,798.563 648.387,1649.75 355.297,2500.93 807.723,3428.53 1658.9,3721.61 2510.08,4014.7 3437.69,3562.28 3730.77,2711.1"
         style="fill:#403f40;fill-opacity:1;fill-rule:nonzero;stroke:none"
         id="path12" />
      <path
         d="M 3619.29,2672.71 C 3891.18,1883.1 3471.48,1022.59 2681.87,750.707 1892.26,478.82 1031.75,898.52 759.867,1688.13 c -271.887,789.61 147.813,1650.12 937.423,1922 789.61,271.89 1650.12,-147.81 1922,-937.42"
         style="fill:#1f1b1c;fill-opacity:1;fill-rule:nonzero;stroke:none"
         id="path14" />
      <path
         d="M 1059.69,1791.37 C 844.816,2415.39 1176.5,3095.45 1800.53,3310.31 2424.55,3525.18 3104.61,3193.5 3319.47,2569.47 3534.34,1945.45 3202.66,1265.39 2578.63,1050.53 1954.61,835.656 1274.55,1167.34 1059.69,1791.37"
         style="fill:none;stroke:#ffffff;stroke-width:50;stroke-linecap:round;stroke-linejoin:round;stroke-miterlimit:10;stroke-dasharray:none;stroke-opacity:1"
         id="path16" />
      <path
         d="m 1333.89,1885.78 c -162.73,472.59 88.46,987.61 561.05,1150.33 472.59,162.73 987.61,-88.46 1150.33,-561.05 C 3208,2002.47 2956.8,1487.45 2484.22,1324.73 2011.63,1162 1496.61,1413.2 1333.89,1885.78"
         style="fill:none;stroke:#ffffff;stroke-width:50;stroke-linecap:round;stroke-linejoin:round;stroke-miterlimit:10;stroke-dasharray:none;stroke-opacity:1"
         id="path18" />
      <path
         d="M 2025.2,3656.91 2187.39,2175.93 3454.28,2959.9 Z"
         style="fill:#1e1b1c;fill-opacity:1;fill-rule:nonzero;stroke:none"
         id="path20" />
      <path
         d="m 1759.84,3580.5 436.54,-1408.96 1379.03,523.45 z"
         style="fill:#1e1b1c;fill-opacity:1;fill-rule:nonzero;stroke:none"
         id="path22" />
      <path
         d="m 1532.47,3507.82 654.92,-1331.89 1452.75,303.91 z"
         style="fill:#1e1b1c;fill-opacity:1;fill-rule:nonzero;stroke:none"
         id="path24" />
      <path
         d="m 1399.25,3411.47 797.13,-1239.93 1467.83,135.23 z"
         style="fill:#1e1b1c;fill-opacity:1;fill-rule:nonzero;stroke:none"
         id="path26" />
      <path
         d="m 1288.33,3320.93 908.05,-1149.39 1464.77,-7.91 z"
         style="fill:#1e1b1c;fill-opacity:1;fill-rule:nonzero;stroke:none"
         id="path28" />
      <path
         d="M 920.5,1391.95 2187.39,2175.93 2349.58,694.941 Z"
         style="fill:#1e1b1c;fill-opacity:1;fill-rule:nonzero;stroke:none"
         id="path30" />
      <path
         d="M 817.344,1648.09 2196.38,2171.54 2632.91,762.586 Z"
         style="fill:#1e1b1c;fill-opacity:1;fill-rule:nonzero;stroke:none"
         id="path32" />
      <path
         d="M 734.633,1872.02 2187.39,2175.93 2842.3,844.035 Z"
         style="fill:#1e1b1c;fill-opacity:1;fill-rule:nonzero;stroke:none"
         id="path34" />
      <path
         d="M 728.539,2036.31 2196.38,2171.54 2993.5,931.617 Z"
         style="fill:#1e1b1c;fill-opacity:1;fill-rule:nonzero;stroke:none"
         id="path36" />
      <path
         d="m 731.602,2179.46 1464.778,-7.92 908.04,-1149.38 z"
         style="fill:#1e1b1c;fill-opacity:1;fill-rule:nonzero;stroke:none"
         id="path38" />
      <path
         d="m 2785.25,2385.53 c 113.29,-328.98 -61.58,-687.51 -390.56,-800.78 -328.99,-113.29 -687.51,61.58 -800.79,390.56 -113.27,328.99 61.59,687.51 390.57,800.79 328.99,113.28 687.51,-61.59 800.78,-390.57"
         style="fill:#ebb241;fill-opacity:1;fill-rule:nonzero;stroke:none"
         id="path40" />
      <path
         d="m 2709.61,2359.48 c 98.9,-287.21 -53.76,-600.2 -340.97,-699.09 -287.21,-98.9 -600.2,53.76 -699.1,340.97 -98.89,287.21 53.77,600.2 340.98,699.1 287.21,98.89 600.2,-53.77 699.09,-340.98"
         style="fill:none;stroke:#ffffff;stroke-width:10;stroke-linecap:round;stroke-linejoin:round;stroke-miterlimit:10;stroke-dasharray:none;stroke-opacity:1"
         id="path42" />
      <path
         d="m 2126.09,2364.8 c -101.82,-35.07 -155.95,-146.04 -120.89,-247.87 35.07,-101.82 146.04,-155.95 247.87,-120.89 101.82,35.07 155.95,146.04 120.89,247.87 -35.07,101.82 -146.04,155.95 -247.87,120.89"
         style="fill:#1f1b1c;fill-opacity:1;fill-rule:nonzero;stroke:none"
         id="path44" />
    </g>
  </g>
</svg>
